<svg xmlns="http://www.w3.org/2000/svg" xmlns:xlink="http://www.w3.org/1999/xlink" xmlns:serif="http://www.serif.com/" viewBox="0 0 379 472.5" version="1.1" xml:space="preserve" style="" x="0px" y="0px" fill-rule="evenodd" clip-rule="evenodd" stroke-linejoin="round" stroke-miterlimit="2"><g transform="matrix(1,0,0,1,-3042.91,-246.143)"><g transform="matrix(1,0,0,1,590.314,649.477)"><g transform="matrix(0.976996,0,0,0.976996,-1810.55,-1517.29)"><path d="M4556.34,1461.02C4538.12,1461.02 4523.33,1475.81 4523.33,1494.03C4523.33,1512.25 4538.12,1527.04 4556.34,1527.04C4574.56,1527.04 4589.35,1512.25 4589.35,1494.03C4589.35,1475.81 4574.56,1461.02 4556.34,1461.02ZM4661.61,1461.02C4643.4,1461.02 4628.61,1475.81 4628.61,1494.03C4628.61,1512.25 4643.4,1527.04 4661.61,1527.04C4679.83,1527.04 4694.62,1512.25 4694.62,1494.03C4694.62,1475.81 4679.83,1461.02 4661.61,1461.02ZM4556.34,1472.45C4568.25,1472.45 4577.91,1482.12 4577.91,1494.03C4577.91,1505.93 4568.25,1515.6 4556.34,1515.6C4544.43,1515.6 4534.77,1505.93 4534.77,1494.03C4534.77,1482.12 4544.43,1472.45 4556.34,1472.45ZM4661.61,1472.45C4673.52,1472.45 4683.19,1482.12 4683.19,1494.03C4683.19,1505.93 4673.52,1515.6 4661.61,1515.6C4649.71,1515.6 4640.04,1505.93 4640.04,1494.03C4640.04,1482.12 4649.71,1472.45 4661.61,1472.45ZM4429.15,1182.35L4507.06,1426.12C4511.54,1440.12 4524.55,1449.62 4539.24,1449.62C4584.48,1449.62 4688.86,1449.62 4688.86,1449.62C4692.02,1449.62 4694.58,1447.06 4694.58,1443.91C4694.58,1440.75 4692.02,1438.19 4688.86,1438.19L4539.24,1438.19C4529.52,1438.19 4520.91,1431.9 4517.95,1422.64L4512.85,1406.68L4679.85,1406.68C4695.76,1406.68 4709.88,1396.45 4714.83,1381.33C4723.43,1355.05 4738.2,1309.94 4748.99,1276.97C4752.66,1265.76 4750.74,1253.47 4743.81,1243.91C4736.89,1234.36 4725.81,1228.71 4714.01,1228.71L4455.97,1228.71L4440.04,1178.87C4436.33,1167.26 4427.2,1158.17 4415.57,1154.5C4397.69,1148.87 4370.95,1140.45 4370.95,1140.45C4367.94,1139.5 4364.73,1141.17 4363.78,1144.18C4362.84,1147.19 4364.51,1150.41 4367.52,1151.35L4412.13,1165.41C4420.22,1167.95 4426.57,1174.28 4429.15,1182.35ZM4459.62,1240.14L4509.2,1395.25L4679.85,1395.25C4690.82,1395.25 4700.55,1388.2 4703.96,1377.77C4712.57,1351.49 4727.33,1306.38 4738.13,1273.41C4740.66,1265.68 4739.33,1257.21 4734.56,1250.62C4729.78,1244.04 4722.14,1240.14 4714.01,1240.14L4459.62,1240.14Z"/></g></g><g transform="matrix(1,0,0,1,590.314,649.477)"><g transform="matrix(0.4355,0,0,0.4355,541.109,-1458.13)"><rect x="4389.67" y="2422.04" width="867.86" height="867.86" style="" fill="none"/></g></g></g><text x="0" y="393" fill="#000000" font-size="5px" font-weight="bold" font-family="'Helvetica Neue', Helvetica, Arial-Unicode, Arial, Sans-serif">Created by Gha Arizal</text><text x="0" y="398" fill="#000000" font-size="5px" font-weight="bold" font-family="'Helvetica Neue', Helvetica, Arial-Unicode, Arial, Sans-serif">from the Noun Project</text></svg>